HIERARCHY
ROOT Spine
{
    OFFSET 0.0 0.0 -0.0
    CHANNELS 6 Xposition Yposition Zposition Zrotation Xrotation Yrotation
    JOINT ShoulderCenter
    {
        OFFSET 0.0 31.320415496826172 0.0
        CHANNELS 3 Zrotation Xrotation Yrotation
        JOINT LeftShoulder
        {
            OFFSET 17.0072021484375 0.0 0.0
            CHANNELS 3 Zrotation Xrotation Yrotation
            JOINT LeftElbow
            {
                OFFSET 30.428159713745117 0.0 0.0
                CHANNELS 3 Zrotation Xrotation Yrotation
                JOINT LeftHand
                {
                    OFFSET 27.097579956054688 0.0 0.0
                    CHANNELS 3 Zrotation Xrotation Yrotation
                    End Site
                    {
                        OFFSET 10.839032173156738 0.0 0.0
                    }
                }
            }
        }
        JOINT RightShoulder
        {
            OFFSET -17.0072021484375 0.0 0.0
            CHANNELS 3 Zrotation Xrotation Yrotation
            JOINT RightElbow
            {
                OFFSET -30.428159713745117 0.0 0.0
                CHANNELS 3 Zrotation Xrotation Yrotation
                JOINT RightHand
                {
                    OFFSET -27.097579956054688 0.0 0.0
                    CHANNELS 3 Zrotation Xrotation Yrotation
                    End Site
                    {
                        OFFSET -10.839032173156738 0.0 0.0
                    }
                }
            }
        }
        End Site
        {
            OFFSET 0.0 12.528166770935059 0.0
        }
    }
    JOINT LeftHip
    {
        OFFSET 16.00997200770413 -16.00997200770413 0.0
        CHANNELS 3 Zrotation Xrotation Yrotation
        JOINT LeftKnee
        {
            OFFSET 0.0 -34.99705505371094 0.0
            CHANNELS 3 Zrotation Xrotation Yrotation
            JOINT LeftFoot
            {
                OFFSET 0.0 -46.642608642578125 0.0
                CHANNELS 3 Zrotation Xrotation Yrotation
                End Site
                {
                    OFFSET 0.0 0.0 18.65704345703125
                }
            }
        }
    }
    JOINT RightHip
    {
        OFFSET -16.00997200770413 -16.00997200770413 0.0
        CHANNELS 3 Zrotation Xrotation Yrotation
        JOINT RightKnee
        {
            OFFSET 0.0 -34.99705505371094 0.0
            CHANNELS 3 Zrotation Xrotation Yrotation
            JOINT RightFoot
            {
                OFFSET 0.0 -46.642608642578125 0.0
                CHANNELS 3 Zrotation Xrotation Yrotation
                End Site
                {
                    OFFSET 0.0 0.0 18.65704345703125
                }
            }
        }
    }
}
MOTION
Frames: 4
Frame Time: 0.03333333333333333
59.70000076293945 -7.199999809265137 218.60000610351562 4.53776609284766 1.4502377003691296 -174.40196344822638 -1.8456619096965845e-07 -2.196908667674538e-07 16.699558555844376 108.01841929075123 -19.258942808602313 -174.8276812224357 1.5699132303909522e-06 1.0284150100889838e-06 26.309571696822527 -6.3611093629270335e-15 8.827812596100317e-32 -1.5902773407317584e-15 -94.41163132944676 -16.234225459904394 -178.24192195008274 -2.9565596434231993e-06 -1.4493953281103257e-06 -29.147076459454606 6.361109362927035e-15 -7.951386703658794e-16 4.4139062980501586e-32 -5.270627865975395 -0.22056297066371822 -16.39148273554136 1.5298586596118606 -8.25946991258252 5.7961388423784035 -1.888454342118963e-15 -1.5902773407317584e-15 -8.945310041616142e-16 9.047056284145006 -30.123513455968002 -35.65817677379368 -51.22017113001575 17.450900791558446 146.48660052956956 0.0 0.0 -8.150171371250262e-15
59.70000076293945 -7.199999809265137 218.6999969482422 4.523465280326833 1.6263385540732396 -174.49174357242805 1.680229332620173e-07 -4.7816303345003e-08 16.344914405580518 107.74547049963014 -18.620854929193577 -175.03922471716217 -5.250940523194117e-07 1.7373532063934986e-06 26.046175386400265 6.3611093629270335e-15 0.0 0.0 -94.30904258770803 -16.005115250750535 -178.36960006243837 -9.030436433514158e-07 -4.1827504890704395e-06 -28.96964502912505 6.3611093629270335e-15 3.531125038440127e-31 6.3611093629270335e-15 -5.26755726427541 -0.05288045315699657 -16.28551229476349 1.554035855069897 -8.381724273632113 5.885960888112908 4.969616689786745e-17 -1.5902773407317584e-15 6.896728590703373e-34 9.249849127987478 -30.078587441187167 -35.138203428294624 -51.1992473509416 17.676011066786536 145.65229405696306 0.0 0.0 -5.963540027744094e-16
59.60000228881836 -7.199999809265137 218.6999969482422 4.343236184915032 1.9879311580216226 -174.8498625453817 2.991666005946239e-07 -1.1371097925463117e-07 15.945738266222797 107.30206090446599 -17.682514309394016 -175.94194278707442 3.5988216374976698e-06 -1.8296450966567226e-06 26.23877139483941 0.0 0.0 0.0 -94.36735997434664 -16.76283208254452 -178.19954489146934 -2.279516600360351e-07 1.18225802593346e-06 -28.950723151414792 0.0 0.0 0.0 -5.249770371327491 0.27309250125645274 -16.012069915492802 1.5346148434461357 -8.388687311621078 5.991153220815282 1.8884543421189626e-15 -3.275946080584102e-33 -1.9878466759146977e-16 9.275416798572058 -29.648158922352962 -34.89770722923425 -51.12632201795327 17.49729277550172 145.439890034906 0.0 0.0 2.3854160110976376e-15
59.60000228881836 -7.199999809265137 218.8000030517578 4.329586477139612 1.9817007836744058 -175.10447642666023 -4.057451861219935e-07 -1.3571334487045579e-07 15.647409409531528 107.02109104616032 -16.775017216710282 -176.18622141390375 -7.448951037792394e-07 5.533476168904214e-07 26.068570806138922 2.2069531490250793e-32 -1.5902773407317584e-15 1.5902773407317584e-15 -94.55220808426274 -17.34055022052692 -178.17415013440663 -4.335102773263954e-06 1.2746294578243056e-06 -29.201629961041434 0.0 0.0 0.0 -5.2660233988504475 0.5754145380159956 -16.251297487628666 1.645177459757353 -8.929615661301577 6.371263665798834 -7.951386703658792e-16 1.3793457181406746e-33 -1.987846675914698e-16 9.388419036503395 -29.748022488988276 -34.59435907230133 -51.129249192805744 17.682505189914707 144.86407798423485 -3.1805546814635168e-15 3.310429723537619e-32 -1.1927080055488188e-15
